<?xml version="1.0" encoding="UTF-8"?>
<!-- Generator: Adobe Illustrator 25.2.1, SVG Export Plug-In . SVG Version: 6.00 Build 0)  -->
<svg xmlns="http://www.w3.org/2000/svg" xmlns:xlink="http://www.w3.org/1999/xlink" version="1.1" id="Layer_1" x="0px" y="0px" viewBox="0 0 745.32 768" style="enable-background:new 0 0 745.32 768;" xml:space="preserve">
<style type="text/css">
	.st0{fill:#FFFFFF;}
	.st1{fill:#D6DAE1;}
	.st2{fill:#049DE0;}
	.st3{fill:url(#SVGID_1_);}
</style>
<g>
	<g>
		<path class="st0" d="M261.48,405.29V595.4c0,9.28-7.53,16.81-16.81,16.81H150.3c-9.28,0-16.81-7.52-16.81-16.81V405.29    c0-9.28,7.52-16.81,16.81-16.81h94.37C253.95,388.48,261.48,396,261.48,405.29z"></path>
		<path class="st0" d="M437.43,293.39v302.22c0,9.2-7.45,16.66-16.65,16.66H326.1c-9.2,0-16.66-7.46-16.66-16.66V293.39    c0-9.2,7.46-16.66,16.66-16.66h94.67C429.97,276.73,437.43,284.19,437.43,293.39z"></path>
		<path class="st0" d="M613.41,180.58v415.43c0,8.98-7.28,16.26-16.26,16.26h-95.47c-8.98,0-16.26-7.28-16.26-16.26V180.58    c0-8.98,7.28-16.26,16.26-16.26h95.47C606.13,164.32,613.41,171.6,613.41,180.58z"></path>
		<path class="st0" d="M667.78,65.2H79.12c-15.31,0-27.77,12.46-27.77,27.77v588.65c0,15.32,12.46,27.78,27.77,27.78v0.01h588.66    c15.31,0,27.77-12.46,27.77-27.78V92.97C695.55,77.66,683.09,65.2,667.78,65.2z M694.05,681.62c0,14.49-11.79,26.27-26.27,26.27    H79.12c-14.49,0-26.27-11.79-26.27-26.27V92.97c0-14.49,11.79-26.27,26.27-26.27h588.66v-0.01c14.49,0,26.27,11.79,26.27,26.27    V681.62z"></path>
		<path class="st1" d="M667.78,63.69H79.12c-16.17,0-29.27,13.11-29.27,29.27v588.66c0,16.17,13.11,29.27,29.27,29.27h588.66    c16.17,0,29.27-13.11,29.27-29.27V92.97C697.05,76.8,683.95,63.69,667.78,63.69z M694.05,681.62c0,14.49-11.79,26.27-26.27,26.27    H79.12c-14.49,0-26.27-11.79-26.27-26.27V92.97c0-14.49,11.79-26.27,26.27-26.27h588.66v-0.01c14.49,0,26.27,11.79,26.27,26.27    V681.62z"></path>
	</g>
	<g>
		<path class="st2" d="M613.41,180.58v415.43c0,8.98-7.28,16.26-16.26,16.26h-95.47c-8.98,0-16.26-7.28-16.26-16.26V180.58    c0-8.98,7.28-16.26,16.26-16.26h95.47C606.13,164.32,613.41,171.6,613.41,180.58z"></path>
		<linearGradient id="SVGID_1_" gradientUnits="userSpaceOnUse" x1="309.44" y1="444.5" x2="437.43" y2="444.5">
			<stop offset="0" style="stop-color:#FF1F5F"></stop>
			<stop offset="1" style="stop-color:#FF608D"></stop>
		</linearGradient>
		<path class="st3" d="M437.43,293.39v302.22c0,9.2-7.45,16.66-16.65,16.66H326.1c-9.2,0-16.66-7.46-16.66-16.66V293.39    c0-9.2,7.46-16.66,16.66-16.66h94.67C429.97,276.73,437.43,284.19,437.43,293.39z"></path>
		<path class="st2" d="M261.48,405.29V595.4c0,9.28-7.53,16.81-16.81,16.81H150.3c-9.28,0-16.81-7.52-16.81-16.81V405.29    c0-9.28,7.52-16.81,16.81-16.81h94.37C253.95,388.48,261.48,396,261.48,405.29z"></path>
	</g>
</g>
</svg>
