<?xml version="1.0" encoding="UTF-8"?>
<!-- Generator: Adobe Illustrator 25.2.1, SVG Export Plug-In . SVG Version: 6.00 Build 0)  -->
<svg xmlns="http://www.w3.org/2000/svg" xmlns:xlink="http://www.w3.org/1999/xlink" version="1.1" id="Layer_1" x="0px" y="0px" viewBox="0 0 670.13 657.9" style="enable-background:new 0 0 670.13 657.9;" xml:space="preserve">
<style type="text/css">
	.st0{fill:#FEFEFE;}
	.st1{fill:#A2A4A8;}
	.st2{fill:#049DE0;}
	.st3{fill:#5E5E5E;}
	.st4{fill:#D6344B;}
</style>
<g>
	<g>
		<path class="st0" d="M287.48,373.74c-15.49-17.19-30.86-34.28-46.26-51.34c-7.37-8.17-18.47-9.28-26.07-2.67    c-8.02,6.97-8.74,18.04-1.18,26.52c19.18,21.52,38.48,42.93,57.91,64.22c8.07,8.84,18.26,8.99,27.37,0.87    c36.3-32.37,72.59-64.75,108.88-97.14c15.08-13.46,30.16-26.93,45.22-40.42c5.27-4.72,8.89-10.27,7.28-17.73    c-3.23-14.98-18.32-20.32-30.09-10.43c-9.5,7.98-18.54,16.51-27.78,24.79C364.44,304.74,326.14,339.08,287.48,373.74z     M171.81,108.25c-1.38-7.93-4.55-13.37-10.84-16.7c-5.88-3.1-12.05-2.96-17.49,0.81c-7.53,5.21-14.69,10.94-21.97,16.51    c-16.25,12.43-25.63,30.4-37.3,46.51c-3.34,4.61-6.38,9.56-8.73,14.73c-3.01,6.62-1.19,13.05,3.63,18.13    c4.71,4.97,10.47,7.14,17.73,5.2c6.7-1.79,10.19-6.63,13.47-11.83c15.05-23.84,33.55-44.59,55.06-62.79    C168.35,116.28,169.7,111.82,171.81,108.25z M118.69,547.8c5.29,3.48,12.02,4.32,17.89,1.95c4.13-1.66,6.97-4.49,8.9-8.78    c3.22-7.14,2.13-14.48-3.67-20.21c-21.29-21.04-39.23-44.53-53.15-71.08c-0.84-1.6-2.46-3.23-4.1-3.88    c-6.94-2.78-15.91-0.49-20.74,4.94c-4.87,5.47-6.12,13.73-2.59,20.51c14.52,27.95,31.97,53.8,55.5,75.05    C117.34,546.85,118.01,547.35,118.69,547.8z"></path>
		<path class="st1" d="M318.49,637.12c-5.59-0.94-11.19-1.87-16.78-2.82c-12.67-2.16-25.45-3.83-37.98-6.65    c-10.09-2.28-15.85-12.4-13.34-21.27c3.05-10.81,11.91-15.89,22.84-13.4c28.35,6.44,57.08,9.04,86.04,6.29    c117.41-11.17,211.6-93.63,239.18-204.64c5.94-23.9,9.14-48.15,8.18-72.71c-2.58-65.84-25.06-124-69.04-173.4    C499.57,105.82,452.35,78.25,396.88,65c-29.27-6.99-59.09-9.21-88.98-5.12c-17.38,2.38-34.56,6.31-51.73,10.02    c-8.99,1.95-17.17-0.31-21.56-7.21c-4.29-6.74-4.1-15.71,1.51-21.52c2.88-2.98,7.01-5.35,11.01-6.53    c22.66-6.71,45.77-11.16,69.45-12.25c0.01,0,0.01,0,0.02,0c3.16-0.34,7.25-0.77,10.42-1.11h15.89c1.91,0.23,5,0.61,6.91,0.84    c0.53,0.15,1.05,0.25,1.58,0.26c20.54,0.46,40.74,3.72,60.49,8.98c72.69,19.35,131.31,59.47,174.84,120.9    c30.18,42.58,48.22,90,53.86,142.02c0.01,0.05,0.01,0.1,0.02,0.14c1.35,12.19,2.26,24.42,2.26,36.69v11.65    c0,2.85-0.63,5.63-1.11,8.44c0,0.01,0,0.01,0,0.02c-2.47,16.24-3.71,32.77-7.5,48.69c-16.67,69.93-53.55,127.34-110.17,171.55    c-46.37,36.21-99.06,57.44-157.84,63c-5.68,0.54-11.31,1.66-16.97,2.43c-1.82,0.12-2.93,0.49-4.98,0.75    c-1.48,0.16-1.48,0.16-3.16,0.38c-4.2,0.69-7.06-0.26-11.23-0.26c-1.17,0.35-3.3-0.23-4.58-0.07    C323.49,637.69,321.4,637.78,318.49,637.12z"></path>
		<path class="st2" d="M27.47,328.61c0-10.43,0.74-20.86,2.35-31.17c0.01-0.05,0.02-0.11,0.03-0.16    c1.59-10.16,2.85-20.39,4.96-30.44c1.87-8.92,12.25-15.16,20.49-13.1c11.11,2.77,16.91,11.7,14.78,21.97    c-5.72,27.67-7.38,55.56-4.25,83.7c0.46,4.13,0.76,8.38,0.34,12.5c-0.88,8.87-8.03,15.56-16.41,15.97    c-8.72,0.43-16.78-5.09-18.6-13.61c-1.36-6.37-1.66-12.97-2.51-19.45c0-0.02,0-0.04-0.01-0.05c-0.65-4.81-1.16-9.64-1.16-14.5    V328.61z"></path>
		<path class="st3" d="M342.39,21.27c-4.81,0-9.62,0-14.42,0C332.77,21.27,337.58,21.27,342.39,21.27z"></path>
		<path class="st4" d="M287.48,373.74c38.66-34.66,76.96-69,115.27-103.34c9.24-8.28,18.28-16.81,27.78-24.79    c11.77-9.88,26.86-4.54,30.09,10.43c1.61,7.46-2.01,13.01-7.28,17.73c-15.06,13.49-30.13,26.96-45.22,40.42    c-36.29,32.39-72.57,64.78-108.88,97.14c-9.11,8.12-19.3,7.97-27.37-0.87c-19.43-21.29-38.73-42.7-57.91-64.22    c-7.56-8.48-6.84-19.54,1.18-26.52c7.6-6.61,18.7-5.49,26.07,2.67C256.61,339.46,271.99,356.55,287.48,373.74z"></path>
		<path class="st2" d="M165.99,95.3c5.82,6.09,6.01,15.83,0.58,22.28c-0.39,0.47-1.12,1.14-1.59,1.54    c-21.35,18.12-39.72,38.77-54.68,62.47c-3.28,5.2-6.77,10.04-13.47,11.83c-7.26,1.94-13.02-0.22-17.73-5.2    c-4.82-5.08-6.64-11.5-3.63-18.13c2.35-5.17,5.39-10.12,8.73-14.73c11.67-16.11,18.59-28.13,37.3-46.51    c6.54-6.42,14.45-11.3,21.97-16.51c5.44-3.77,11.61-3.91,17.49-0.81C162.93,92.59,164.59,93.84,165.99,95.3z"></path>
		<path class="st2" d="M126.47,551.62c-2.05-1.09-6.57-2.46-9.73-5.32c-23.53-21.25-40.97-47.1-55.5-75.05    c-3.52-6.78-2.28-15.04,2.59-20.51c4.83-5.43,13.8-7.72,20.74-4.94c1.64,0.66,3.26,2.29,4.1,3.88    c13.91,26.55,31.86,50.04,53.15,71.08c5.8,5.73,6.89,13.07,3.67,20.21C142.26,548.12,136.53,551.21,126.47,551.62z"></path>
	</g>
</g>
</svg>
